<mxfile host="Electron" agent="Mozilla/5.0 (Macintosh; Intel Mac OS X 10_15_7) AppleWebKit/537.36 (KHTML, like Gecko) draw.io/26.0.9 Chrome/128.0.6613.186 Electron/32.2.5 Safari/537.36" version="26.0.9">
  <diagram id="R80ToxflkBRPXwO5SlVU" name="Page-1">
    <mxGraphModel dx="1815" dy="968" grid="1" gridSize="10" guides="1" tooltips="1" connect="1" arrows="1" fold="1" page="1" pageScale="1" pageWidth="1654" pageHeight="1169" math="0" shadow="0">
      <root>
        <mxCell id="0" />
        <mxCell id="1" parent="0" />
        <mxCell id="1qwXHvDlDT7WJc2tM3RW-55" value="" style="rounded=0;whiteSpace=wrap;html=1;fontFamily=Courier New;fillColor=#f5f5f5;fontColor=#333333;strokeColor=#666666;" parent="1" vertex="1">
          <mxGeometry x="330" y="260" width="180" height="810" as="geometry" />
        </mxCell>
        <mxCell id="1qwXHvDlDT7WJc2tM3RW-58" value="" style="rounded=0;whiteSpace=wrap;html=1;fontFamily=Courier New;fillColor=#dae8fc;strokeColor=#6c8ebf;" parent="1" vertex="1">
          <mxGeometry x="310" y="970" width="220" height="80" as="geometry" />
        </mxCell>
        <mxCell id="1qwXHvDlDT7WJc2tM3RW-57" value="" style="rounded=0;whiteSpace=wrap;html=1;fontFamily=Courier New;fillColor=#f5f5f5;fontColor=#333333;strokeColor=#666666;" parent="1" vertex="1">
          <mxGeometry x="820" y="150" width="200" height="100" as="geometry" />
        </mxCell>
        <mxCell id="1qwXHvDlDT7WJc2tM3RW-56" value="" style="rounded=0;whiteSpace=wrap;html=1;fontFamily=Courier New;fillColor=#f5f5f5;fontColor=#333333;strokeColor=#666666;" parent="1" vertex="1">
          <mxGeometry x="610" y="150" width="180" height="100" as="geometry" />
        </mxCell>
        <mxCell id="1qwXHvDlDT7WJc2tM3RW-54" value="" style="rounded=0;whiteSpace=wrap;html=1;fontFamily=Courier New;fillColor=#f5f5f5;fontColor=#333333;strokeColor=#666666;" parent="1" vertex="1">
          <mxGeometry x="70" y="260" width="180" height="300" as="geometry" />
        </mxCell>
        <mxCell id="1qwXHvDlDT7WJc2tM3RW-2" value="" style="endArrow=classic;html=1;rounded=0;entryX=0.5;entryY=1;entryDx=0;entryDy=0;" parent="1" target="1qwXHvDlDT7WJc2tM3RW-48" edge="1">
          <mxGeometry width="50" height="50" relative="1" as="geometry">
            <mxPoint x="160" y="671.3793103448276" as="sourcePoint" />
            <mxPoint x="160" y="200" as="targetPoint" />
          </mxGeometry>
        </mxCell>
        <mxCell id="1qwXHvDlDT7WJc2tM3RW-49" value="GET /profile" style="edgeLabel;html=1;align=center;verticalAlign=middle;resizable=0;points=[];fontFamily=Courier New;" parent="1qwXHvDlDT7WJc2tM3RW-2" vertex="1" connectable="0">
          <mxGeometry x="-0.0908" relative="1" as="geometry">
            <mxPoint as="offset" />
          </mxGeometry>
        </mxCell>
        <mxCell id="1qwXHvDlDT7WJc2tM3RW-11" style="edgeStyle=orthogonalEdgeStyle;rounded=0;orthogonalLoop=1;jettySize=auto;html=1;fontFamily=Courier New;" parent="1" source="1qwXHvDlDT7WJc2tM3RW-3" target="1qwXHvDlDT7WJc2tM3RW-10" edge="1">
          <mxGeometry relative="1" as="geometry" />
        </mxCell>
        <mxCell id="1qwXHvDlDT7WJc2tM3RW-63" value="req" style="edgeLabel;html=1;align=center;verticalAlign=middle;resizable=0;points=[];fontFamily=Courier New;" parent="1qwXHvDlDT7WJc2tM3RW-11" vertex="1" connectable="0">
          <mxGeometry y="2" relative="1" as="geometry">
            <mxPoint x="-3" y="1" as="offset" />
          </mxGeometry>
        </mxCell>
        <mxCell id="1qwXHvDlDT7WJc2tM3RW-3" value="routes/index" style="rounded=1;whiteSpace=wrap;html=1;fontFamily=Courier New;" parent="1" vertex="1">
          <mxGeometry x="160" y="170" width="120" height="60" as="geometry" />
        </mxCell>
        <mxCell id="1qwXHvDlDT7WJc2tM3RW-7" value="" style="edgeStyle=orthogonalEdgeStyle;rounded=0;orthogonalLoop=1;jettySize=auto;html=1;fontFamily=Courier New;" parent="1" source="1qwXHvDlDT7WJc2tM3RW-4" target="1qwXHvDlDT7WJc2tM3RW-6" edge="1">
          <mxGeometry relative="1" as="geometry" />
        </mxCell>
        <mxCell id="1qwXHvDlDT7WJc2tM3RW-4" value="routes/profile" style="whiteSpace=wrap;html=1;fontFamily=Courier New;rounded=1;" parent="1" vertex="1">
          <mxGeometry x="640" y="170" width="120" height="60" as="geometry" />
        </mxCell>
        <mxCell id="1qwXHvDlDT7WJc2tM3RW-62" style="edgeStyle=orthogonalEdgeStyle;rounded=0;orthogonalLoop=1;jettySize=auto;html=1;fontFamily=Courier New;" parent="1" source="1qwXHvDlDT7WJc2tM3RW-6" target="1qwXHvDlDT7WJc2tM3RW-60" edge="1">
          <mxGeometry relative="1" as="geometry" />
        </mxCell>
        <mxCell id="1qwXHvDlDT7WJc2tM3RW-6" value="controllers/&lt;br&gt;profile_controller" style="whiteSpace=wrap;html=1;fontFamily=Courier New;rounded=1;" parent="1" vertex="1">
          <mxGeometry x="840" y="170" width="160" height="60" as="geometry" />
        </mxCell>
        <mxCell id="1qwXHvDlDT7WJc2tM3RW-16" value="" style="edgeStyle=orthogonalEdgeStyle;rounded=0;orthogonalLoop=1;jettySize=auto;html=1;fontFamily=Courier New;" parent="1" source="1qwXHvDlDT7WJc2tM3RW-10" target="1qwXHvDlDT7WJc2tM3RW-15" edge="1">
          <mxGeometry relative="1" as="geometry" />
        </mxCell>
        <mxCell id="1qwXHvDlDT7WJc2tM3RW-64" value="req" style="edgeLabel;html=1;align=center;verticalAlign=middle;resizable=0;points=[];fontFamily=Courier New;" parent="1qwXHvDlDT7WJc2tM3RW-16" vertex="1" connectable="0">
          <mxGeometry x="-0.28" relative="1" as="geometry">
            <mxPoint as="offset" />
          </mxGeometry>
        </mxCell>
        <mxCell id="1qwXHvDlDT7WJc2tM3RW-53" style="edgeStyle=orthogonalEdgeStyle;rounded=0;orthogonalLoop=1;jettySize=auto;html=1;fontFamily=Courier New;dashed=1;" parent="1" source="1qwXHvDlDT7WJc2tM3RW-10" target="1qwXHvDlDT7WJc2tM3RW-4" edge="1">
          <mxGeometry relative="1" as="geometry" />
        </mxCell>
        <mxCell id="1qwXHvDlDT7WJc2tM3RW-10" value="middlewares/&lt;br&gt;auth/basic" style="rounded=1;whiteSpace=wrap;html=1;fontFamily=Courier New;fillColor=#fff2cc;strokeColor=#d6b656;" parent="1" vertex="1">
          <mxGeometry x="360" y="170" width="120" height="60" as="geometry" />
        </mxCell>
        <mxCell id="1qwXHvDlDT7WJc2tM3RW-19" value="false" style="edgeStyle=orthogonalEdgeStyle;rounded=0;orthogonalLoop=1;jettySize=auto;html=1;fontFamily=Courier New;" parent="1" source="1qwXHvDlDT7WJc2tM3RW-15" target="1qwXHvDlDT7WJc2tM3RW-18" edge="1">
          <mxGeometry relative="1" as="geometry" />
        </mxCell>
        <mxCell id="_Pi-eeovoEDyyKeSyLAP-5" style="edgeStyle=orthogonalEdgeStyle;rounded=0;orthogonalLoop=1;jettySize=auto;html=1;entryX=0.5;entryY=0;entryDx=0;entryDy=0;" edge="1" parent="1" source="1qwXHvDlDT7WJc2tM3RW-15" target="_Pi-eeovoEDyyKeSyLAP-4">
          <mxGeometry relative="1" as="geometry" />
        </mxCell>
        <mxCell id="1qwXHvDlDT7WJc2tM3RW-15" value="&lt;span&gt;Has Authorization header?&lt;/span&gt;" style="whiteSpace=wrap;html=1;fontFamily=Courier New;rounded=1;fillColor=#d5e8d4;strokeColor=#82b366;" parent="1" vertex="1">
          <mxGeometry x="360" y="280" width="120" height="60" as="geometry" />
        </mxCell>
        <mxCell id="1qwXHvDlDT7WJc2tM3RW-18" value="HTTP 401 Unauthorized" style="shape=hexagon;perimeter=hexagonPerimeter2;whiteSpace=wrap;html=1;fixedSize=1;fontFamily=Courier New;fillColor=#f8cecc;strokeColor=#b85450;" parent="1" vertex="1">
          <mxGeometry x="550" y="280" width="120" height="60" as="geometry" />
        </mxCell>
        <mxCell id="1qwXHvDlDT7WJc2tM3RW-22" value="false" style="edgeStyle=orthogonalEdgeStyle;rounded=0;orthogonalLoop=1;jettySize=auto;html=1;entryX=0;entryY=0.5;entryDx=0;entryDy=0;fontFamily=Courier New;" parent="1" source="1qwXHvDlDT7WJc2tM3RW-20" target="1qwXHvDlDT7WJc2tM3RW-21" edge="1">
          <mxGeometry relative="1" as="geometry">
            <Array as="points">
              <mxPoint x="520" y="510" />
              <mxPoint x="520" y="510" />
            </Array>
          </mxGeometry>
        </mxCell>
        <mxCell id="1qwXHvDlDT7WJc2tM3RW-25" style="edgeStyle=orthogonalEdgeStyle;rounded=0;orthogonalLoop=1;jettySize=auto;html=1;entryX=0.5;entryY=0;entryDx=0;entryDy=0;fontFamily=Courier New;" parent="1" source="1qwXHvDlDT7WJc2tM3RW-20" target="1qwXHvDlDT7WJc2tM3RW-24" edge="1">
          <mxGeometry relative="1" as="geometry" />
        </mxCell>
        <mxCell id="1qwXHvDlDT7WJc2tM3RW-26" value="true" style="edgeLabel;html=1;align=center;verticalAlign=middle;resizable=0;points=[];fontFamily=Courier New;" parent="1qwXHvDlDT7WJc2tM3RW-25" vertex="1" connectable="0">
          <mxGeometry x="-0.0667" y="1" relative="1" as="geometry">
            <mxPoint y="-2" as="offset" />
          </mxGeometry>
        </mxCell>
        <mxCell id="1qwXHvDlDT7WJc2tM3RW-20" value="Is Basic?" style="whiteSpace=wrap;html=1;fontFamily=Courier New;rounded=1;fillColor=#d5e8d4;strokeColor=#82b366;" parent="1" vertex="1">
          <mxGeometry x="360" y="480" width="120" height="60" as="geometry" />
        </mxCell>
        <mxCell id="1qwXHvDlDT7WJc2tM3RW-21" value="HTTP 401 Unauthorized" style="shape=hexagon;perimeter=hexagonPerimeter2;whiteSpace=wrap;html=1;fixedSize=1;fontFamily=Courier New;fillColor=#f8cecc;strokeColor=#b85450;" parent="1" vertex="1">
          <mxGeometry x="550" y="480" width="120" height="60" as="geometry" />
        </mxCell>
        <mxCell id="1qwXHvDlDT7WJc2tM3RW-28" style="edgeStyle=orthogonalEdgeStyle;rounded=0;orthogonalLoop=1;jettySize=auto;html=1;entryX=0.5;entryY=0;entryDx=0;entryDy=0;fontFamily=Courier New;" parent="1" source="1qwXHvDlDT7WJc2tM3RW-24" target="1qwXHvDlDT7WJc2tM3RW-27" edge="1">
          <mxGeometry relative="1" as="geometry" />
        </mxCell>
        <mxCell id="1qwXHvDlDT7WJc2tM3RW-24" value="Decode credentials" style="whiteSpace=wrap;html=1;fontFamily=Courier New;rounded=1;fillColor=#d5e8d4;strokeColor=#82b366;" parent="1" vertex="1">
          <mxGeometry x="360" y="580" width="120" height="60" as="geometry" />
        </mxCell>
        <mxCell id="1qwXHvDlDT7WJc2tM3RW-30" style="edgeStyle=orthogonalEdgeStyle;rounded=0;orthogonalLoop=1;jettySize=auto;html=1;entryX=0.5;entryY=0;entryDx=0;entryDy=0;fontFamily=Courier New;" parent="1" source="1qwXHvDlDT7WJc2tM3RW-27" target="1qwXHvDlDT7WJc2tM3RW-29" edge="1">
          <mxGeometry relative="1" as="geometry" />
        </mxCell>
        <mxCell id="1qwXHvDlDT7WJc2tM3RW-27" value="Split credentials" style="whiteSpace=wrap;html=1;fontFamily=Courier New;rounded=1;fillColor=#d5e8d4;strokeColor=#82b366;" parent="1" vertex="1">
          <mxGeometry x="360" y="684.5" width="120" height="60" as="geometry" />
        </mxCell>
        <mxCell id="1qwXHvDlDT7WJc2tM3RW-32" value="false" style="edgeStyle=orthogonalEdgeStyle;rounded=0;orthogonalLoop=1;jettySize=auto;html=1;entryX=0;entryY=0.5;entryDx=0;entryDy=0;fontFamily=Courier New;" parent="1" source="1qwXHvDlDT7WJc2tM3RW-29" target="1qwXHvDlDT7WJc2tM3RW-31" edge="1">
          <mxGeometry relative="1" as="geometry" />
        </mxCell>
        <mxCell id="1qwXHvDlDT7WJc2tM3RW-34" style="edgeStyle=orthogonalEdgeStyle;rounded=0;orthogonalLoop=1;jettySize=auto;html=1;fontFamily=Courier New;" parent="1" source="1qwXHvDlDT7WJc2tM3RW-29" target="1qwXHvDlDT7WJc2tM3RW-33" edge="1">
          <mxGeometry relative="1" as="geometry" />
        </mxCell>
        <mxCell id="1qwXHvDlDT7WJc2tM3RW-35" value="true" style="edgeLabel;html=1;align=center;verticalAlign=middle;resizable=0;points=[];fontFamily=Courier New;" parent="1qwXHvDlDT7WJc2tM3RW-34" vertex="1" connectable="0">
          <mxGeometry x="-0.0458" y="2" relative="1" as="geometry">
            <mxPoint as="offset" />
          </mxGeometry>
        </mxCell>
        <mxCell id="1qwXHvDlDT7WJc2tM3RW-29" value="Get User from database" style="whiteSpace=wrap;html=1;fontFamily=Courier New;rounded=1;fillColor=#d5e8d4;strokeColor=#82b366;" parent="1" vertex="1">
          <mxGeometry x="360" y="780" width="120" height="60" as="geometry" />
        </mxCell>
        <mxCell id="1qwXHvDlDT7WJc2tM3RW-31" value="HTTP 401 Unauthorized" style="shape=hexagon;perimeter=hexagonPerimeter2;whiteSpace=wrap;html=1;fixedSize=1;fontFamily=Courier New;fillColor=#f8cecc;strokeColor=#b85450;" parent="1" vertex="1">
          <mxGeometry x="550" y="780" width="120" height="60" as="geometry" />
        </mxCell>
        <mxCell id="1qwXHvDlDT7WJc2tM3RW-37" style="edgeStyle=orthogonalEdgeStyle;rounded=0;orthogonalLoop=1;jettySize=auto;html=1;fontFamily=Courier New;" parent="1" source="1qwXHvDlDT7WJc2tM3RW-33" target="1qwXHvDlDT7WJc2tM3RW-36" edge="1">
          <mxGeometry relative="1" as="geometry" />
        </mxCell>
        <mxCell id="_Pi-eeovoEDyyKeSyLAP-3" value="false" style="edgeLabel;html=1;align=center;verticalAlign=middle;resizable=0;points=[];fontFamily=Courier New;" vertex="1" connectable="0" parent="1qwXHvDlDT7WJc2tM3RW-37">
          <mxGeometry x="-0.0108" relative="1" as="geometry">
            <mxPoint as="offset" />
          </mxGeometry>
        </mxCell>
        <mxCell id="1qwXHvDlDT7WJc2tM3RW-39" style="edgeStyle=orthogonalEdgeStyle;rounded=0;orthogonalLoop=1;jettySize=auto;html=1;fontFamily=Courier New;" parent="1" source="1qwXHvDlDT7WJc2tM3RW-33" target="1qwXHvDlDT7WJc2tM3RW-38" edge="1">
          <mxGeometry relative="1" as="geometry" />
        </mxCell>
        <mxCell id="1qwXHvDlDT7WJc2tM3RW-40" value="true" style="edgeLabel;html=1;align=center;verticalAlign=middle;resizable=0;points=[];fontFamily=Courier New;" parent="1qwXHvDlDT7WJc2tM3RW-39" vertex="1" connectable="0">
          <mxGeometry x="-0.0667" relative="1" as="geometry">
            <mxPoint as="offset" />
          </mxGeometry>
        </mxCell>
        <mxCell id="1qwXHvDlDT7WJc2tM3RW-33" value="Verify hash against credentials" style="whiteSpace=wrap;html=1;fontFamily=Courier New;rounded=1;fillColor=#d5e8d4;strokeColor=#82b366;" parent="1" vertex="1">
          <mxGeometry x="360" y="880" width="120" height="60" as="geometry" />
        </mxCell>
        <mxCell id="1qwXHvDlDT7WJc2tM3RW-36" value="HTTP 401 Unauthorized" style="shape=hexagon;perimeter=hexagonPerimeter2;whiteSpace=wrap;html=1;fixedSize=1;fontFamily=Courier New;fillColor=#f8cecc;strokeColor=#b85450;" parent="1" vertex="1">
          <mxGeometry x="550" y="880" width="120" height="60" as="geometry" />
        </mxCell>
        <mxCell id="1qwXHvDlDT7WJc2tM3RW-42" style="edgeStyle=orthogonalEdgeStyle;rounded=0;orthogonalLoop=1;jettySize=auto;html=1;entryX=0.5;entryY=1;entryDx=0;entryDy=0;fontFamily=Courier New;exitX=1;exitY=0.5;exitDx=0;exitDy=0;" parent="1" source="1qwXHvDlDT7WJc2tM3RW-38" target="1qwXHvDlDT7WJc2tM3RW-4" edge="1">
          <mxGeometry relative="1" as="geometry">
            <Array as="points">
              <mxPoint x="700" y="1010" />
            </Array>
          </mxGeometry>
        </mxCell>
        <mxCell id="1qwXHvDlDT7WJc2tM3RW-65" value="req (with user)" style="edgeLabel;html=1;align=center;verticalAlign=middle;resizable=0;points=[];fontFamily=Courier New;" parent="1qwXHvDlDT7WJc2tM3RW-42" vertex="1" connectable="0">
          <mxGeometry x="-0.6532" y="-1" relative="1" as="geometry">
            <mxPoint x="-50" y="-1" as="offset" />
          </mxGeometry>
        </mxCell>
        <mxCell id="1qwXHvDlDT7WJc2tM3RW-38" value="Attach User to Request" style="whiteSpace=wrap;html=1;fontFamily=Courier New;rounded=1;fillColor=#d5e8d4;strokeColor=#82b366;" parent="1" vertex="1">
          <mxGeometry x="360" y="980" width="120" height="60" as="geometry" />
        </mxCell>
        <mxCell id="1qwXHvDlDT7WJc2tM3RW-43" value="🚔👮‍♀️ HTTP Basic Auth Flow" style="text;html=1;strokeColor=none;fillColor=none;align=left;verticalAlign=middle;whiteSpace=wrap;rounded=0;fontFamily=Courier New;fontStyle=5" parent="1" vertex="1">
          <mxGeometry x="40" y="100" width="220" height="30" as="geometry" />
        </mxCell>
        <mxCell id="1qwXHvDlDT7WJc2tM3RW-52" style="edgeStyle=orthogonalEdgeStyle;rounded=0;orthogonalLoop=1;jettySize=auto;html=1;entryX=0;entryY=0.5;entryDx=0;entryDy=0;fontFamily=Courier New;" parent="1" source="1qwXHvDlDT7WJc2tM3RW-46" target="1qwXHvDlDT7WJc2tM3RW-3" edge="1">
          <mxGeometry relative="1" as="geometry">
            <Array as="points">
              <mxPoint x="160" y="240" />
              <mxPoint x="140" y="240" />
              <mxPoint x="140" y="200" />
            </Array>
          </mxGeometry>
        </mxCell>
        <mxCell id="1qwXHvDlDT7WJc2tM3RW-46" value="morgan(&#39;dev&#39;)" style="rounded=1;whiteSpace=wrap;html=1;fontFamily=Courier New;fillColor=#fff2cc;strokeColor=#d6b656;" parent="1" vertex="1">
          <mxGeometry x="100" y="280" width="120" height="60" as="geometry" />
        </mxCell>
        <mxCell id="1qwXHvDlDT7WJc2tM3RW-51" style="edgeStyle=orthogonalEdgeStyle;rounded=0;orthogonalLoop=1;jettySize=auto;html=1;entryX=0.5;entryY=1;entryDx=0;entryDy=0;fontFamily=Courier New;" parent="1" source="1qwXHvDlDT7WJc2tM3RW-47" target="1qwXHvDlDT7WJc2tM3RW-46" edge="1">
          <mxGeometry relative="1" as="geometry" />
        </mxCell>
        <mxCell id="1qwXHvDlDT7WJc2tM3RW-47" value="express.json()" style="rounded=1;whiteSpace=wrap;html=1;fontFamily=Courier New;fillColor=#fff2cc;strokeColor=#d6b656;" parent="1" vertex="1">
          <mxGeometry x="100" y="380" width="120" height="60" as="geometry" />
        </mxCell>
        <mxCell id="1qwXHvDlDT7WJc2tM3RW-50" style="edgeStyle=orthogonalEdgeStyle;rounded=0;orthogonalLoop=1;jettySize=auto;html=1;entryX=0.5;entryY=1;entryDx=0;entryDy=0;fontFamily=Courier New;" parent="1" source="1qwXHvDlDT7WJc2tM3RW-48" target="1qwXHvDlDT7WJc2tM3RW-47" edge="1">
          <mxGeometry relative="1" as="geometry" />
        </mxCell>
        <mxCell id="1qwXHvDlDT7WJc2tM3RW-48" value="cors()" style="rounded=1;whiteSpace=wrap;html=1;fontFamily=Courier New;fillColor=#fff2cc;strokeColor=#d6b656;" parent="1" vertex="1">
          <mxGeometry x="100" y="480" width="120" height="60" as="geometry" />
        </mxCell>
        <mxCell id="1qwXHvDlDT7WJc2tM3RW-59" value="" style="rounded=0;whiteSpace=wrap;html=1;fontFamily=Courier New;fillColor=#dae8fc;strokeColor=#6c8ebf;" parent="1" vertex="1">
          <mxGeometry x="810" y="290" width="220" height="80" as="geometry" />
        </mxCell>
        <mxCell id="1qwXHvDlDT7WJc2tM3RW-60" value="Get User from database" style="whiteSpace=wrap;html=1;fontFamily=Courier New;rounded=1;fillColor=#d5e8d4;strokeColor=#82b366;" parent="1" vertex="1">
          <mxGeometry x="860" y="300" width="120" height="60" as="geometry" />
        </mxCell>
        <mxCell id="_Pi-eeovoEDyyKeSyLAP-1" value="true" style="edgeLabel;html=1;align=center;verticalAlign=middle;resizable=0;points=[];fontFamily=Courier New;" vertex="1" connectable="0" parent="1">
          <mxGeometry x="419.99999999999955" y="660.0006896551723" as="geometry" />
        </mxCell>
        <mxCell id="_Pi-eeovoEDyyKeSyLAP-2" value="true" style="edgeLabel;html=1;align=center;verticalAlign=middle;resizable=0;points=[];fontFamily=Courier New;" vertex="1" connectable="0" parent="1">
          <mxGeometry x="418.99999999999955" y="758.6206896551723" as="geometry" />
        </mxCell>
        <mxCell id="_Pi-eeovoEDyyKeSyLAP-6" style="edgeStyle=orthogonalEdgeStyle;rounded=0;orthogonalLoop=1;jettySize=auto;html=1;" edge="1" parent="1" source="_Pi-eeovoEDyyKeSyLAP-4" target="1qwXHvDlDT7WJc2tM3RW-20">
          <mxGeometry relative="1" as="geometry" />
        </mxCell>
        <mxCell id="_Pi-eeovoEDyyKeSyLAP-4" value="Split Authorization header" style="whiteSpace=wrap;html=1;fontFamily=Courier New;rounded=1;fillColor=#d5e8d4;strokeColor=#82b366;" vertex="1" parent="1">
          <mxGeometry x="360" y="380" width="120" height="60" as="geometry" />
        </mxCell>
        <mxCell id="_Pi-eeovoEDyyKeSyLAP-8" value="request" style="ellipse;whiteSpace=wrap;html=1;fillColor=#e1d5e7;strokeColor=#9673a6;" vertex="1" parent="1">
          <mxGeometry x="374" y="140" width="90" height="50" as="geometry" />
        </mxCell>
      </root>
    </mxGraphModel>
  </diagram>
</mxfile>
